<?xml version="1.0" encoding="UTF-8" standalone="no"?>
<!-- Created with Inkscape (http://www.inkscape.org/) -->

<svg
   width="101.36922mm"
   height="101.36922mm"
   viewBox="0 0 101.36922 101.36922"
   version="1.1"
   id="svg1"
   xml:space="preserve"
   xmlns="http://www.w3.org/2000/svg"
   xmlns:svg="http://www.w3.org/2000/svg"><defs
     id="defs1" /><g
     id="layer1"
     transform="translate(-62.159721,-77.832542)"
     style="display:inline"><path
       style="display:none;fill:#f9f9f9;stroke-width:0.396328"
       d="m 91.035876,158.81768 c -0.618711,-0.3772 -3.952267,-3.32489 -4.08191,-3.60943 -0.147674,-0.32411 -0.158784,-0.68293 -0.03146,-1.01617 0.05101,-0.13353 0.959379,-1.21343 2.01859,-2.39979 2.631236,-2.9471 7.182451,-8.0837 8.933696,-10.08275 0.794392,-0.90681 1.482383,-1.67224 1.528863,-1.70097 0.0465,-0.0288 0.50412,0.30769 1.016985,0.74758 0.51286,0.43989 1.72219,1.45868 2.6874,2.26397 l 1.75493,1.46418 -0.48746,0.53803 c -0.49262,0.54373 -3.27994,3.67539 -6.168253,6.93025 -0.86511,0.9749 -2.624523,2.96729 -3.909807,4.42753 -2.555664,2.90356 -2.529399,2.88393 -3.261571,2.43757 z m 29.888904,-11.52709 c 1.08563,-3.04691 2.29176,-6.60629 2.23862,-6.60629 -0.0257,0 -0.30578,0.36966 -0.62238,0.82148 l -0.57562,0.82148 -0.71129,0.12547 c -2.10213,0.37085 -5.09356,0.44054 -7.07097,0.16475 -4.50701,-0.62863 -8.59992,-2.64057 -11.92403,-5.86147 -3.713376,-3.59808 -5.891944,-8.17727 -6.319279,-13.28266 -0.288447,-3.44608 0.475108,-7.4147 2.004532,-10.41869 1.650472,-3.24175 4.038667,-5.85456 7.498357,-8.20364 0.35247,-0.23932 1.96578,-1.78937 3.66838,-3.52452 1.67157,-1.703523 3.05436,-3.082171 3.07287,-3.06366 0.0185,0.01851 -0.39456,1.013216 -0.91792,2.21045 -0.52337,1.19724 -0.93153,2.19685 -0.90703,2.22135 0.0245,0.0245 0.36758,-0.0513 0.76241,-0.16843 0.39482,-0.11714 1.10501,-0.29745 1.57818,-0.40069 l 0.86032,-0.1877 1.13472,-1.10103 c 0.62409,-0.60556 1.40331,-1.357425 1.73159,-1.670807 l 0.59688,-0.569785 -0.78915,1.539752 -0.78914,1.53976 1.76253,-5.2e-4 1.76253,-5.1e-4 2.05389,-1.755903 c 1.12963,-0.965747 2.14049,-1.826685 2.24635,-1.913196 0.10586,-0.08651 -0.29932,0.472884 -0.9004,1.243099 -0.60109,0.77021 -1.33757,1.7178 -1.63664,2.10574 -0.58313,0.75641 -4.74316,4.87393 -4.83324,4.78385 -0.0297,-0.0297 0.069,-0.24 0.21936,-0.46725 0.15039,-0.22726 0.44354,-0.6883 0.65144,-1.02454 l 0.37801,-0.61135 -0.60988,0.66075 -0.60988,0.66074 -1.15203,0.15944 c -1.29186,0.17879 -3.86572,0.80863 -4.19232,1.02588 -0.11733,0.0781 -0.62852,0.50707 -1.13598,0.95337 -0.50746,0.4463 -0.94076,0.79335 -0.96288,0.77122 -0.0221,-0.0221 0.19129,-0.93335 0.47427,-2.02493 0.28298,-1.09158 0.49609,-2.00312 0.47358,-2.02563 -0.0577,-0.0577 -0.63518,0.86257 -1.57082,2.50306 -0.44618,0.78231 -0.979,1.56848 -1.20146,1.77273 -0.21986,0.20186 -0.90334,0.814 -1.51885,1.36033 -4.82664,4.28405 -6.703905,10.5022 -5.03446,16.67589 1.60327,5.92903 6.53129,10.62597 12.81015,12.20945 1.61962,0.40846 2.69586,0.5093 4.78629,0.44845 1.98345,-0.0577 2.97311,-0.21639 4.56865,-0.73238 0.78642,-0.25433 0.78652,-0.25441 1.67172,-1.34493 0.48689,-0.59982 1.69137,-2.05794 2.67663,-3.24025 0.98526,-1.18232 1.89635,-2.2858 2.02465,-2.45219 0.12831,-0.16638 0.23329,-0.25467 0.23329,-0.1962 0,0.0585 -0.35391,1.08042 -0.78646,2.27102 -0.43256,1.19059 -0.78646,2.20193 -0.78646,2.24744 0,0.11188 1.37015,-1.13608 2.14906,-1.9574 1.8749,-1.97701 3.29946,-4.70806 4.00204,-7.67245 0.33146,-1.39847 0.44771,-4.15173 0.24712,-5.85251 -0.15405,-1.3062 -0.58811,-3.1576 -1.03707,-4.42349 l -0.31595,-0.89086 0.23002,-0.24914 c 0.12651,-0.13703 1.58958,-1.52219 3.25128,-3.07814 l 3.02126,-2.82901 -0.64021,1.19017 c -0.35213,0.6546 -0.9748,1.8508 -1.38371,2.65824 l -0.74349,1.46806 0.37535,1.15349 c 0.52319,1.60784 0.68587,2.29389 0.91792,3.87105 0.25502,1.73334 0.27287,4.53881 0.039,6.12979 -0.96517,6.56578 -4.93854,12.1548 -10.78515,15.17063 l -1.00743,0.51967 -1.87432,2.88369 c -1.65519,2.54656 -3.07227,4.73864 -3.43504,5.31366 -0.0665,0.10537 0.20698,-0.72857 0.6077,-1.85322 z m -18.39917,-6.33527 c -1.60441,-1.29268 -2.911325,-2.38976 -2.904235,-2.43794 0.007,-0.0482 0.20353,-0.31369 0.436525,-0.59001 l 0.42363,-0.5024 0.54065,0.45999 c 0.29736,0.253 1.60238,1.31819 2.90005,2.36709 1.29766,1.04891 2.37294,1.94625 2.38952,1.99409 0.0166,0.0478 -0.17218,0.30582 -0.41945,0.57326 l -0.44958,0.48626 z m 6.69884,-5.52772 c 0.45567,-0.75163 6.33578,-9.47127 8.6123,-12.77122 0.61355,-0.88937 1.03264,-1.58523 0.9313,-1.54635 -0.2504,0.0961 -1.90014,0.47671 -5.09368,1.17519 -1.47068,0.32166 -3.09315,0.69847 -3.60548,0.83734 -0.51233,0.13888 -0.91199,0.233 -0.88814,0.20914 0.06,-0.06 3.35185,-2.3234 4.98471,-3.4274 4.62461,-3.12674 12.7944,-8.74971 14.97602,-10.30746 0.57674,-0.41181 1.11543,-0.78936 1.19708,-0.839 0.0816,-0.0496 -0.0748,0.22268 -0.34777,0.60515 -0.67075,0.93996 -7.32627,10.83709 -11.75471,17.47989 l -3.60041,5.40073 -1.64327,0.99584 c -0.90381,0.54772 -1.9105,1.16274 -2.23709,1.36672 -1.10608,0.69082 -1.61829,0.96566 -1.53086,0.82143 z m 11.79335,-5.63808 c 1.11219,-2.75059 2.10657,-5.38132 2.05396,-5.43393 -0.0396,-0.0396 -1.42433,0.81243 -2.94385,1.81126 -0.29716,0.19534 -0.29088,0.17548 0.15128,-0.47779 1.82775,-2.70047 9.91275,-13.70663 13.05662,-17.77407 1.84744,-2.39015 4.65055,-5.93934 4.8449,-6.13442 0.0862,-0.0865 -0.0323,0.22237 -0.2634,0.6864 -0.23106,0.46402 -1.03214,2.13919 -1.78018,3.72259 -0.74804,1.5834 -3.12433,6.41799 -5.28064,10.74354 -2.15631,4.32554 -4.31632,8.67635 -4.80004,9.66845 -0.4837,0.9921 -0.94186,1.82777 -1.01813,1.85703 -0.0763,0.0292 -1.17048,0.73244 -2.43159,1.56261 l -2.29293,1.5094 z m 6.25418,-21.19293 c 0.12028,-0.20186 0.53385,-0.94395 0.91902,-1.6491 0.38519,-0.70514 0.74442,-1.30932 0.79832,-1.34263 0.0539,-0.0333 0.28852,0.0926 0.5214,0.27972 l 0.42343,0.34027 -0.60605,0.6173 c -0.33334,0.33951 -0.98153,0.95573 -1.44044,1.36938 -0.70071,0.63159 -0.79934,0.69328 -0.61568,0.38506 z M 125.2616,107.475 c -1.83069,-1.07306 -4.13439,-1.81247 -6.58843,-2.11465 -0.45157,-0.0556 -0.84216,-0.12221 -0.86797,-0.14803 -0.0258,-0.0258 0.73794,-0.76564 1.69722,-1.64407 2.02112,-1.85077 1.64284,-1.74607 3.7668,-1.0425 1.80026,0.59635 4.15261,1.7534 5.2767,2.59546 l 0.3482,0.26083 -0.65506,0.58487 c -0.97589,0.87133 -2.22011,1.89694 -2.28833,1.88626 -0.033,-0.005 -0.34309,-0.17533 -0.68913,-0.37817 z"
       id="path2" /><circle
       style="display:inline;fill:none;stroke:#87dd00;stroke-width:5.765;stroke-dasharray:none;stroke-opacity:1"
       id="path3"
       cx="112.84433"
       cy="128.51715"
       r="47.802109" /></g><path
     style="display:none;fill:#ffffff;stroke:none;stroke-width:0.398277"
     d="m 30.119234,29.816667 v 0.05767 c 2.713528,-0.05306 5.517463,-0.726927 8.229989,-0.92284 4.586849,-0.331282 9.18085,-0.403745 13.820167,-0.403745 4.755091,0 9.705156,0.288393 14.36366,0.961297 4.535465,0.65513 9.609665,1.333009 13.431965,3.383748 4.65347,2.496678 3.58729,5.548486 -1.16462,7.411573 -1.34082,0.525693 -2.87298,0.954936 -4.34792,1.259295 -12.902414,2.662436 -28.341012,3.049406 -41.460509,1.018967 -5.856492,-0.906378 -16.808868,-1.917157 -15.140074,-7.805699 h -0.07764 l -0.155283,0.288388 -0.232925,-0.346067 c -1.575033,0.858044 -0.973872,3.536607 -0.07764,4.55653 2.637946,3.002027 8.259501,3.533583 10.843917,6.748278 0.956723,1.190047 1.105725,2.973415 2.588046,3.845175 7.626764,4.485354 21.053646,3.292997 29.969579,2.557041 3.205244,-0.264575 7.211575,-0.929522 9.782818,-2.441684 1.286987,-0.756889 2.569611,-3.267017 3.183301,-4.421952 0.95015,0.445796 1.94766,0.745403 2.79509,1.336199 2.293,1.598584 0.89281,3.262815 -1.47519,4.191238 -3.879321,1.520964 -8.688318,2.418624 -13.043754,2.778136 -10.667061,0.880499 -23.049531,1.502511 -33.308162,-1.461162 -1.468136,-0.424137 -2.976346,-0.897537 -4.192636,-1.66304 -0.446115,-0.280778 -0.97076,-1.192413 -1.397545,-1.31697 0,2.992034 6.457365,4.311469 9.316969,5.37363 2.177667,0.80886 2.709276,2.445224 4.891408,3.21072 6.383518,2.239336 15.969539,1.777386 22.671289,0.74019 3.457293,-0.535065 4.226497,-1.576591 6.521878,-3.210717 0.413598,-0.29445 2.223205,-1.177421 2.79509,-0.970903 2.190356,0.79097 1.585867,2.492607 -0.07764,3.316455 -2.490695,1.233515 -6.152046,1.738259 -9.084044,1.980268 -7.776795,0.641895 -15.824294,0.848338 -23.525346,-0.422974 -2.100578,-0.346763 -3.925549,-1.267285 -5.900746,-1.653418 l 0.155282,0.173031 c -1.675304,-8e-6 -1.53073,-1.736208 -1.319903,-2.480137 h -0.07764 c -2.182529,3.242666 5.06033,4.891245 7.608858,6.363762 1.324226,0.765122 2.124206,2.490493 3.416221,2.970396 4.051926,1.505029 10.08156,1.131975 14.441301,0.817097 1.644927,-0.118802 3.640844,-0.214468 5.124331,-0.826715 1.134129,-0.468059 1.432458,-1.663638 2.406886,-2.345552 2.21886,-1.552773 10.396613,-3.430167 8.980525,-6.45989 -0.368709,-0.788847 -1.404129,-1.018645 -1.992798,-1.614973 2.697795,-0.158219 7.654516,-2.319763 8.915816,-4.095106 1.4225,-2.002245 -1.76186,-4.569549 -4.49026,-4.729565 0.23977,-0.846079 1.91702,-1.712693 2.79509,-2.210974 3.06582,-1.739768 8.68908,-3.163531 8.22999,-6.671374 -0.51247,-3.915643 -8.14396,-5.554548 -12.34499,-6.421437 -9.934903,-2.05009 -21.268548,-2.336332 -31.5224,-1.595748 -3.627315,0.261983 -7.245912,0.941021 -10.869797,1.153553 m 17.15875,-0.672908 c -6.63312,0.958126 -13.186521,0.533679 -19.487992,2.874268 -1.155782,0.429298 -6.45984,3.409138 -3.338581,4.51808 0.402258,0.142913 1.748565,-0.463495 2.17396,-0.586391 1.992328,-0.575578 4.130642,-0.889217 6.211312,-1.211232 6.787564,-1.050475 14.473813,-1.559759 21.429026,-1.057421 5.316706,0.383999 10.536613,0.635061 15.761204,1.605359 1.036384,0.192475 4.975048,1.712642 5.745458,1.480394 1.06052,-0.319704 0.90511,-1.695464 0.55644,-2.278266 -0.89573,-1.497183 -3.55011,-2.392612 -5.447841,-2.980011 -5.154036,-1.595306 -10.698973,-1.874992 -16.149413,-2.268648 -2.262917,-0.163441 -5.198277,-0.421899 -7.453573,-0.09613 m -17.546957,0.730583 v 0.05768 h 0.310565 l -0.310565,-0.05768 m -0.310566,0.05768 v 0.05768 h 0.232924 l -0.232924,-0.05768 m -0.698772,0.115357 v 0.05768 l 0.621131,-0.05768 h -0.621131 m -0.310566,0.05768 v 0.05768 h 0.232924 l -0.232924,-0.05768 m -0.310566,0.05768 v 0.05768 h 0.232925 l -0.232925,-0.05768 m -0.310565,0.05768 v 0.05768 h 0.232924 l -0.232924,-0.05768 m -0.181163,0.0769 0.05176,0.01924 -0.05176,-0.01924 m -0.310566,0.05768 0.05176,0.01924 -0.05176,-0.01924 m -0.232924,0.05768 0.05176,0.01924 -0.05176,-0.01924 m -0.284686,0.03843 0.07764,0.05768 -0.07764,-0.05768 m -0.310565,0.05768 0.07764,0.05768 -0.07764,-0.05768 m -0.155283,0.05768 0.07764,0.05768 -0.07764,-0.05768 m -0.310566,0.05768 0.07764,0.05768 -0.07764,-0.05768 m -0.465848,0.115352 0.07764,0.05768 -0.07764,-0.05768 m -0.155283,0.05768 0.07764,0.05768 -0.07764,-0.05768 m -0.465848,0.115357 0.07764,0.05768 -0.07764,-0.05768 m -0.181163,0.0769 0.05176,0.01924 -0.05176,-0.01924 m -0.232924,0.05767 0.05176,0.01924 -0.05176,-0.01924 m -0.207045,0.03843 0.07764,0.05768 -0.07764,-0.05768 m -0.181162,0.0769 0.05176,0.01924 -0.05176,-0.01924 m -0.232925,0.05768 0.05176,0.01924 -0.05176,-0.01924 m -0.207044,0.03843 0.07764,0.05768 -0.07764,-0.05768 m -0.155282,0.05768 0.07764,0.05768 -0.07764,-0.05768 m -0.155283,0.05768 0.07764,0.05768 -0.07764,-0.05768 m -2.639808,1.153553 h -0.310566 l -0.543489,0.288384 v 0.05768 h 0.310565 c 1e-6,-0.378637 2.576343,-1.239393 3.105656,-1.384262 -0.357528,-0.156945 -2.614957,0.763679 -2.562166,1.0382 m -3.105656,1.903356 0.543489,-0.230709 -0.07764,-0.173032 0.54349,-0.346066 -0.388207,0.576776 1.63047,-1.268906 c -0.897108,0.157837 -1.797212,0.858892 -2.251601,1.441937 m 1.164621,-0.807486 -0.07764,0.05768 0.07764,-0.05768 m -0.621132,0.692134 -0.310565,0.403741 h 0.07764 l 0.232923,-0.403741 m 9.239328,3.691364 v 0.05768 c 3.526068,1.65437 8.833302,2.071896 12.888473,2.36478 11.350372,0.819781 21.88652,0.302499 32.764664,-2.249427 -0.19103,-0.477331 -1.743857,-0.790819 -2.329236,-0.990132 -2.659155,-0.905407 -5.61311,-1.270619 -8.462912,-1.682262 -7.780391,-1.123845 -16.762026,-1.065048 -24.534683,0.05768 -3.480911,0.502804 -7.286308,1.015371 -10.326306,2.441683 M 16.764912,37.430047 c 1.374266,2.771011 6.844905,4.404925 10.48159,4.902596 v 0.05768 c -2.652148,-0.05185 -6.985233,-1.401663 -8.85112,-2.768525 -0.451992,-0.331107 -2.142135,-1.66911 -1.63047,-2.191749 m 67.004533,0.634455 -0.0776,0.05768 0.0776,-0.05768 m -0.0776,0.115353 c -1.58026,3.186393 -8.68961,4.204695 -12.577911,4.806464 -12.917787,1.999221 -25.402229,1.144161 -38.354853,0.38452 v -0.05768 c 3.734022,0 7.896343,0.53665 11.646211,0.807486 3.777862,0.272856 7.976739,0.03992 11.72385,-0.230709 7.738333,-0.558898 15.851885,-0.768794 23.059503,-3.297238 1.77011,-0.620957 2.92473,-1.675769 4.5032,-2.412844 M 32.68144,43.255542 v 0.05768 h -0.232924 l 0.232924,-0.05768 m 45.575505,6.517573 c -1.43578,2.133187 -5.78478,2.895198 -8.618196,3.47988 -9.16272,1.890744 -18.121979,1.422713 -27.485057,1.422713 v -0.05768 c 12.936565,0 24.645116,0.08308 36.103253,-4.844914 m -37.190233,4.729561 v 0.05768 h -0.388247 l 0.388207,-0.05768 m 0.931697,0.05768 v 0.05767 h -0.54349 l 0.54349,-0.05767 m -11.956777,0.346062 -0.155283,0.173036 0.155283,-0.173036 m -0.232924,0.23071 -0.07764,0.115357 0.07764,-0.115357 m 41.227586,1.788008 c -0.410006,1.446776 -3.493799,2.047541 -5.124333,2.384009 C 60.737648,60.376873 55.431803,60.6165 50.073072,60.6165 v -0.05768 c 7.224746,0 15.013026,-0.496791 20.963182,-3.633687 m -40.140606,1.038197 -0.155283,0.115353 0.155283,-0.115353 m 36.258534,6.056146 c 1.509012,1.93627 -3.813428,2.557785 -5.667821,2.710847 -7.200305,0.594316 -14.366899,0.636617 -21.58431,0.115357 -1.880094,-0.135789 -8.270693,-0.684104 -6.677161,-2.826204 -3.274171,0.704073 1.082461,2.930636 2.251601,3.268394 1.774142,0.512537 3.803966,0.525345 5.51254,1.124712 1.295079,0.454315 1.787226,1.533784 2.950373,1.941819 3.302783,1.158611 8.988903,0.801118 12.422623,0.163413 1.613068,-0.299576 1.862764,-1.441691 3.26094,-1.989879 2.24523,-0.880287 4.96889,-0.797784 7.143007,-1.874516 1.103976,-0.546742 2.480325,-2.184054 0.388208,-2.633943 m -3.882071,5.652402 c -0.740245,1.393132 -4.686609,1.493637 -6.366596,1.614972 -6.014732,0.434413 -14.127794,0.978738 -19.487989,-1.326584 -1.255543,1.541005 4.362517,2.189555 5.434898,2.499362 1.439946,0.415992 2.47862,1.254142 3.804429,1.691876 4.392679,1.450309 8.102488,-0.68093 11.801492,-1.749554 1.263104,-0.364901 6.346773,-1.109576 4.96905,-2.730072 h -0.155284 m -22.050156,4.32582 c -0.861387,1.057225 2.749206,1.82296 3.649146,2.268652 2.59395,1.284646 4.955653,2.531929 8.385271,1.576523 1.077071,-0.30005 1.917639,-1.302031 2.95037,-1.749558 1.068239,-0.46291 4.131506,-0.915412 3.649149,-2.153296 -5.580827,1.200124 -13.075239,2.122377 -18.633936,0.05768 m 15.372996,4.037431 c -1.527798,0.0896 -3.380116,0.339244 -4.891409,0.557552 -2.196453,0.317267 -5.695012,-0.964666 -7.531214,-0.480649 -1.307088,0.344546 2.119074,1.741597 2.406884,1.884136 2.690811,1.332619 5.064477,0.806921 7.686497,-0.221099 0.943075,-0.369752 2.727992,-0.716619 2.329242,-1.73994"
     id="path1" /><path
     style="fill:#f9f9f9;stroke-width:0.656806"
     d="m 56.318731,88.797413 c -0.232073,-0.224924 -0.03463,-0.345556 0.744626,-0.454878 0.461155,-0.0647 1.7695,-0.343467 2.907431,-0.619487 6.750688,-1.63744 13.025279,-5.035781 17.495984,-9.475882 5.327387,-5.290926 8.548751,-11.791823 9.582298,-19.337604 l 0.281196,-2.052992 -0.09091,-3.336115 -0.09092,-3.336109 -0.285365,-1.539744 c -0.687069,-3.707205 -1.614757,-6.478505 -3.264368,-9.751711 -1.220112,-2.420985 -3.776697,-6.244516 -4.175359,-6.244516 -0.08333,0 -0.569069,0.39967 -1.079421,0.88816 -0.510359,0.488489 -0.984918,0.832913 -1.054583,0.765394 -0.06967,-0.06751 0.340273,-0.580082 0.910963,-1.139026 l 1.03763,-1.016273 -0.325849,-0.348963 -0.325848,-0.34897 0.13103,-0.126995 0.131031,-0.126994 0.225674,0.299129 c 0.124126,0.164517 0.297348,0.299122 0.384946,0.299122 0.0876,0 1.349782,-1.159808 2.804862,-2.577348 1.455073,-1.417541 2.7846,-2.652046 2.954499,-2.743341 l 0.30891,-0.165992 v 0.179021 c 0,0.09847 -1.270944,1.399662 -2.824317,2.891544 -1.553379,1.491882 -2.824323,2.7698 -2.824323,2.839815 0,0.07001 0.382791,0.638464 0.850638,1.263233 3.079986,4.113006 5.263027,8.943144 6.298682,13.936298 l 0.454911,2.193235 0.156036,2.527088 0.156029,2.527081 -0.151733,2.217535 c -0.167864,2.45318 -0.389189,3.911729 -0.904905,5.963335 -2.144238,8.530101 -7.420754,15.691829 -15.115785,20.516386 -2.349551,1.4731 -5.868823,3.075184 -8.890759,4.047358 -2.113554,0.679944 -6.225639,1.570729 -6.412931,1.389206 z M 47.92845,86.253649 V 85.910861 L 45.942602,85.70357 C 35.073815,84.56903 25.517422,78.905423 19.64028,70.115475 16.296738,65.114814 14.397696,59.190831 14.101956,52.838874 l -0.119609,-2.568988 h -0.520333 -0.520339 l 0.123271,-1.240349 C 13.693787,42.701854 16.084454,36.241803 19.611992,31.338113 24.90781,23.97631 32.73636,18.786922 41.857363,16.592096 c 2.883734,-0.69393 4.080435,-0.869608 7.127371,-1.046327 l 2.62687,-0.152354 2.350771,0.161355 c 2.935599,0.201497 4.982752,0.517289 7.6109,1.174059 1.923708,0.48073 4.811371,1.446088 5.112728,1.709214 l 0.134707,0.117612 -0.196106,0.545223 c -0.228949,0.636544 -0.168605,0.620146 -1.005706,0.273265 -1.983299,-0.821844 -5.806888,-1.818111 -8.545754,-2.226659 l -1.995635,-0.297681 -3.442141,-0.01332 -3.442135,-0.01332 0.02789,3.336109 0.02789,3.336115 0.678177,-0.03763 c 1.35646,-0.07527 5.541573,0.289495 7.324169,0.638361 3.358379,0.657261 7.442629,2.217322 10.299916,3.934257 l 1.235644,0.742497 3.95683,-1.312996 c 2.176262,-0.722149 3.989268,-1.281565 4.02891,-1.243143 0.09665,0.09367 -2.211968,7.490769 -2.392442,7.665677 l -0.141692,0.137334 -0.596242,-0.771259 c -0.327937,-0.42419 -0.656001,-0.771252 -0.729042,-0.771252 -0.07304,0 -0.783908,0.712126 -1.579712,1.58251 -0.795797,0.870385 -1.586598,1.726163 -1.757331,1.901724 l -0.310417,0.319203 -1.193846,-0.981576 c -3.325373,-2.7341 -7.814216,-4.739883 -12.217618,-5.459264 -2.043343,-0.333826 -4.940487,-0.512944 -5.94205,-0.367379 l -0.805778,0.117114 0.04337,6.105831 0.04337,6.105837 0.485427,0.05412 0.485433,0.05412 v -5.475911 -5.475909 l 0.174063,-0.104266 0.174062,-0.104259 0.04657,5.52604 0.04657,5.52604 h 1.235644 1.235637 l 0.04503,15.876423 0.04503,15.876428 1.014073,-0.05128 1.014072,-0.05128 0.0453,-12.352582 0.0453,-12.35259 1.088888,-0.05089 1.088882,-0.05089 -0.0441,-3.036714 -0.0441,-3.036721 h 0.189681 0.18968 v 3.079487 3.079488 h 1.05912 1.059119 l -3.8e-4,0.213854 c -0.01408,7.92257 0.121997,22.544061 0.210556,22.629847 0.06706,0.06496 0.563518,-0.126775 1.103252,-0.426066 l 0.981329,-0.544169 v -8.969285 -8.969277 l 1.10325,7.1e-5 1.103245,6.4e-5 -0.03856,-4.270371 -0.03856,-4.270379 0.170947,-0.102397 0.170947,-0.102398 0.006,0.223948 c 0.0033,0.123173 6.6e-4,2.09089 -0.0053,4.372704 l -0.01134,4.148758 h 1.239213 1.239206 l 0.04617,6.80053 0.04617,6.800536 0.839877,-1.135677 c 0.46193,-0.62462 1.256272,-1.971893 1.765197,-2.993941 l 0.92532,-1.858269 0.08826,-3.763823 0.08826,-3.763816 h 2.206498 2.206498 l -0.0423,1.846328 -0.0423,1.846329 -0.355991,1.6931 c -1.489179,7.082433 -5.794381,12.495109 -12.45295,15.65636 -1.911049,0.907306 -4.276085,1.677583 -6.387739,2.080454 l -1.548062,0.295346 -2.691771,0.01022 -2.691772,0.01022 -1.6e-4,0.918628 -1.53e-4,0.918622 2.780183,-0.08526 2.780191,-0.08526 1.588679,-0.285163 c 5.037765,-0.904266 10.258398,-3.606896 13.973963,-7.234077 l 1.441049,-1.406775 0.967205,-1.417295 c 2.887943,-4.231879 4.34766,-8.856249 4.355699,-13.798839 l 0.0033,-1.945492 -0.277699,-1.812595 c -0.351915,-2.297036 -1.10915,-4.611479 -2.210321,-6.755714 -0.73664,-1.434405 -1.261002,-2.24424 -2.961498,-4.57382 l -0.24218,-0.33177 h 0.277446 0.277453 l 1.08279,1.49697 c 2.100686,2.904217 3.519159,6.265764 4.169075,9.880025 l 0.276878,1.539744 -0.09086,3.250569 -0.09086,3.250574 -0.445504,1.710825 c -0.865629,3.324202 -1.950681,5.695224 -3.92456,8.57582 l -0.952713,1.390358 -1.872884,1.733074 -1.87289,1.733068 -1.718502,1.108816 c -3.120009,2.013096 -6.926979,3.501415 -10.517298,4.111693 -0.873768,0.148521 -2.76311,0.316219 -4.198536,0.372668 l -2.609863,0.102624 0.02862,3.91546 c 0.01574,2.153508 -0.02122,3.963745 -0.08207,4.022754 -0.06091,0.05904 -0.110702,-0.04694 -0.110702,-0.235495 z m 0,-1.59615 v -0.855415 l -0.75021,-0.02987 -0.75021,-0.02987 0.75021,-0.06549 0.75021,-0.06549 V 81.004038 78.396706 L 46.295645,78.196554 C 44.211097,77.941033 41.23336,77.119623 39.146585,76.224492 L 37.513773,75.52409 v -0.223591 c 0,-0.293756 -0.07036,-0.311887 1.474501,0.379897 2.450845,1.097481 4.960622,1.774153 8.189966,2.208133 l 0.75021,0.10082 V 77.068632 76.147915 L 46.825204,75.948998 C 46.218413,75.839592 44.828315,75.475588 43.736098,75.1401 L 41.75025,74.530119 V 61.630114 48.730143 h 0.441301 0.441301 v -4.629326 -4.629332 l 0.176518,0.105734 0.176524,0.105741 v 4.523591 4.523592 h 0.353035 0.353043 l 0.0405,-3.72105 0.0405,-3.721043 0.05117,3.71181 0.05117,3.711809 0.835053,0.05199 0.835053,0.05199 0.03823,8.383055 c 0.02102,4.610675 0.0409,10.172996 0.0441,12.360716 l 0.006,3.97767 h 1.030712 1.030719 l 0.10607,-21.937356 c 0.05838,-12.065547 0.0744,-21.968061 0.03569,-22.005591 -0.163468,-0.158432 -3.668897,0.572594 -5.367018,1.119246 -7.574268,2.438263 -13.661392,8.411435 -16.181076,15.878183 l -0.577328,1.710824 3.385759,0.04397 c 1.862162,0.02418 3.504908,0.101156 3.650536,0.171087 l 0.264777,0.127136 -3.705744,0.08554 -3.705743,0.08554 -0.211784,1.112036 c -0.11648,0.611624 -0.267892,2.31754 -0.336463,3.790929 l -0.12468,2.678886 -0.48504,0.06899 -0.48504,0.069 -0.300596,-0.213028 -0.300597,-0.213033 0.136281,-0.225234 c 0.07496,-0.123878 -0.0497,-0.07126 -0.277039,0.116927 l -0.413313,0.342167 0.120196,-0.318443 0.120196,-0.318444 -0.266785,0.09922 -0.266778,0.09922 v -0.279769 c 0,-0.153868 -0.03856,-0.242415 -0.08564,-0.196758 -0.107613,0.104299 0.312265,2.443293 0.702241,3.911949 1.008716,3.798809 3.507791,8.168132 6.346651,11.096338 1.342163,1.384402 4.357454,3.687594 5.725123,4.373054 0.302838,0.151786 0.550615,0.348634 0.550615,0.437446 v 0.161485 l -0.617818,-0.0225 -0.617819,-0.0225 -0.0091,-0.186133 c -0.0047,-0.102372 -0.700053,-0.644659 -1.544546,-1.205077 l -1.535447,-1.018937 -1.941721,-1.88389 -1.941714,-1.883891 -0.264784,0.04436 -0.264776,0.04429 0.208395,-0.1382 0.208394,-0.138201 -1.070755,-1.536989 c -0.588963,-0.845346 -1.534772,-2.460834 -2.101839,-3.58998 l -1.031039,-2.052992 -0.613929,-1.967449 -0.613922,-1.967452 -0.0081,0.48878 -0.0081,0.48878 -0.244515,-0.09094 c -0.13448,-0.04998 -0.432361,0.0366 -0.661951,0.192438 -0.229584,0.155859 -0.455845,0.284781 -0.5028,0.286488 -0.09147,0.0032 -0.05177,0.424364 0.105191,1.114797 0.05344,0.23505 0.04577,0.377595 -0.01695,0.316768 -0.222457,-0.215592 -0.962359,-3.506263 -1.167485,-5.19227 l -0.208148,-1.710825 0.10754,-2.4807 0.10754,-2.480699 0.363189,-1.674543 c 1.145551,-5.281731 3.706251,-10.042577 7.582929,-14.09817 l 1.076906,-1.126605 -0.312759,-0.361094 c -0.172014,-0.198607 -0.743712,-0.79861 -1.27043,-1.333345 l -0.95767,-0.972246 -1.136257,1.143333 -1.136257,1.143325 1.097088,-1.241681 1.097087,-1.241689 -0.288247,-0.426369 c -0.158537,-0.234507 -0.365851,-0.426376 -0.460695,-0.426376 -0.09485,0 -0.152593,-0.09166 -0.128322,-0.203689 0.02428,-0.112032 -0.08893,-0.232049 -0.25156,-0.266701 l -0.295693,-0.06298 -0.763427,0.801889 c -4.661693,4.896531 -7.978228,11.742079 -9.05496,18.69005 l -0.269687,1.740213 0.0053,2.439058 c 0.01828,8.111704 2.638258,15.4197 7.715219,21.52061 3.116053,3.744515 8.082973,7.511985 12.620648,9.572911 3.552263,1.613373 9.035793,2.961309 12.447199,3.059723 l 0.75021,0.02166 z M 38.061459,72.17086 36.454653,71.148269 v -4.194673 -4.19468 h -2.90216 -2.902161 l -0.109094,-0.17108 -0.109095,-0.171081 h 3.011255 3.011255 v -1.782111 -1.782113 l 0.220651,-0.07181 0.22065,-0.07181 v -4.559756 -4.559756 l 0.176518,0.04087 0.176524,0.04087 0.03463,4.533691 0.03463,4.533692 0.362562,0.05464 0.362569,0.0547 v -0.867313 -0.867314 h 0.176518 0.176517 v 0.855416 0.855415 h 0.794343 0.794337 v 7.08983 7.089831 l -0.158391,0.09488 c -0.08712,0.05218 -0.881461,-0.365283 -1.765204,-0.9277 z M 21.523118,63.154701 c -0.05578,-0.170634 -0.178733,-0.496417 -0.273283,-0.723966 l -0.171915,-0.413728 0.275492,0.221588 0.275484,0.221593 0.693175,-0.107428 0.693167,-0.107428 0.116333,0.355229 c 0.144941,0.442612 0.05784,0.528845 -0.583299,0.577728 -0.280595,0.0214 -0.603241,0.09464 -0.716979,0.162772 l -0.2068,0.123878 z m 2.514759,-6.118334 -0.09815,-0.247911 0.284745,0.105902 0.284745,0.105902 -0.127962,-0.200676 -0.127962,-0.200669 0.319658,0.06033 c 0.17581,0.03317 0.438806,0.106588 0.584434,0.163089 0.145628,0.05651 0.900248,0.09508 1.676938,0.08572 0.776689,-0.0094 2.941263,-0.0058 4.81017,0.0085 l 3.398008,0.02554 v 0.17108 0.171087 H 29.589265 24.13603 Z m 7.223742,-12.560864 c -0.146769,-0.230168 2.130548,-3.204782 3.593627,-4.693967 0.722236,-0.735127 1.807922,-1.688678 2.412631,-2.119011 l 1.099469,-0.78242 -0.09264,-0.233957 c -0.162988,-0.411659 -0.595282,-0.255036 -1.746396,0.632716 -1.524719,1.175889 -3.519419,3.287134 -4.937318,5.225812 -0.64612,0.883426 -1.206216,1.606235 -1.244651,1.606235 -0.523928,0 1.251582,-2.595771 3.270881,-4.781971 0.62385,-0.675412 1.797848,-1.737691 2.608877,-2.360624 l 1.474601,-1.132599 -0.271889,-0.26352 -0.271888,-0.263513 -0.425563,0.252359 c -1.592135,0.944137 -4.679813,4.147639 -6.368787,6.607686 l -1.004333,1.462849 -0.167371,-0.162216 -0.167371,-0.162215 1.007788,-1.437256 c 1.785845,-2.546881 3.608545,-4.474404 5.849681,-6.186069 0.606784,-0.463433 1.103246,-0.912563 1.103246,-0.998071 0,-0.08551 0.123839,-0.155465 0.275198,-0.155465 h 0.275197 l -0.115966,0.18186 -0.115973,0.181866 0.30943,0.331382 c 0.170186,0.18226 0.368433,0.331388 0.440554,0.331388 0.07211,0 0.635698,-0.295922 1.252409,-0.657604 1.862736,-1.092437 5.892774,-2.388092 6.275178,-2.017467 0.190681,0.184802 -0.04577,0.292889 -1.208364,0.552478 -0.616664,0.137683 -1.677245,0.449266 -2.356842,0.692405 -1.300219,0.465178 -3.795177,1.749084 -3.795177,1.952993 0,0.0658 0.117133,0.213847 0.2603,0.329003 l 0.260299,0.209379 0.842946,-0.494865 c 1.65721,-0.972879 3.3318,-1.571848 5.653116,-2.022006 l 0.573692,-0.11125 v 0.248176 0.248176 l -0.866383,0.111392 c -1.535953,0.197475 -5.142223,1.631977 -5.679208,2.259067 l -0.204966,0.239369 0.725432,0.898428 c 0.39899,0.494141 1.042968,1.283369 1.431062,1.75385 0.388095,0.470475 0.706751,0.913152 0.708126,0.983723 0.0075,0.383402 -0.454918,-0.05212 -1.771015,-1.668058 -0.804664,-0.987996 -1.502068,-1.796364 -1.549783,-1.796364 -0.258512,0 -2.125965,1.541095 -3.388629,2.796433 -1.34792,1.34009 -3.52623,4.063456 -3.52623,4.408559 0,0.194876 -0.303265,0.196939 -0.426997,0.0026 z m 2.103935,-16.265884 c 3.823157,-2.335562 9.101161,-4.132133 13.371438,-4.55148 l 1.191565,-0.117018 -0.0085,-3.33735 -0.0085,-3.33735 -1.094833,0.118369 c -2.196404,0.237468 -4.859647,0.825626 -7.375235,1.628763 l -2.573483,0.821623 -2.192554,1.062021 c -3.295278,1.596187 -7.109629,4.18125 -9.06408,6.14294 l -0.693381,0.695955 0.283637,0.303752 c 0.155996,0.167065 0.290289,0.360557 0.298422,0.429977 0.0081,0.06942 0.780019,0.8871 1.715286,1.817063 l 1.700489,1.690851 1.607039,-1.306634 c 0.883876,-0.718645 2.163085,-1.646312 2.842683,-2.061482 z m 21.909148,55.12199 c -0.05424,-0.352863 -0.147723,-1.068073 -0.20774,-1.589365 l -0.109135,-0.94781 1.383741,-0.22407 c 0.761058,-0.123238 2.304797,-0.516585 3.430532,-0.874103 11.218171,-3.56272 18.733249,-13.08868 19.502987,-24.721602 l 0.113204,-1.710825 -0.204638,-1.967452 c -0.271775,-2.612983 -0.602641,-4.131492 -1.420702,-6.520347 -0.792368,-2.313829 -1.815233,-4.364519 -3.025699,-6.06609 -0.473211,-0.665189 -0.860378,-1.253108 -0.860378,-1.306479 0,-0.112187 2.375663,-2.017771 2.515527,-2.017771 0.194624,0 2.423425,3.397783 3.129643,4.771108 1.505871,2.928336 2.609864,6.87892 3.017339,10.797412 l 0.204592,1.967452 -0.111843,1.976976 c -0.259933,4.594777 -1.521909,9.301532 -3.508077,13.083958 -1.430829,2.72486 -4.461738,6.455654 -6.880607,8.469474 -2.884381,2.401373 -6.99752,4.746343 -10.463533,5.965445 -1.706998,0.600398 -5.403028,1.554435 -6.024943,1.555185 l -0.381656,4.66e-4 z M 71.73389,50.697594 c -0.06191,-0.0941 -0.207868,-0.62034 -0.324341,-1.169429 C 70.238013,44.005183 65.949737,38.400716 60.802612,35.665672 58.519984,34.452738 55.448945,33.50712 52.908286,33.234877 l -1.110097,-0.11895 0.06345,-0.184543 0.06345,-0.184543 0.870112,0.04979 c 3.105405,0.177734 6.728601,1.473919 10.049144,3.595044 l 1.235643,0.789306 1.676938,1.633839 1.676938,1.633832 0.992891,1.446192 c 0.546085,0.795397 1.200364,1.845792 1.453946,2.334204 1.111391,2.140582 2.154278,5.35333 2.024696,6.237319 l -0.05898,0.402296 z M 18.713305,21.53098 c -2.006329,-2.070314 -3.619146,-3.84772 -3.58404,-3.949794 0.05624,-0.163464 5.871465,5.54763 7.097842,6.970706 l 0.468107,0.543192 -0.167017,0.100044 -0.167024,0.100044 z"
     id="path54" /></svg>
