<?xml version="1.0" encoding="UTF-8" standalone="no"?>
<!-- Created with Inkscape (http://www.inkscape.org/) -->

<svg
   width="101.36922mm"
   height="101.36922mm"
   viewBox="0 0 101.36922 101.36922"
   version="1.1"
   id="svg1"
   xml:space="preserve"
   xmlns="http://www.w3.org/2000/svg"
   xmlns:svg="http://www.w3.org/2000/svg"><defs
     id="defs1" /><g
     id="layer1"
     transform="translate(-62.159715,-77.832539)"><path
       style="display:none;fill:#f9f9f9;stroke-width:0.396328"
       d="m 91.035876,158.81768 c -0.618711,-0.3772 -3.952267,-3.32489 -4.08191,-3.60943 -0.147674,-0.32411 -0.158784,-0.68293 -0.03146,-1.01617 0.05101,-0.13353 0.959379,-1.21343 2.01859,-2.39979 2.631236,-2.9471 7.182451,-8.0837 8.933696,-10.08275 0.794392,-0.90681 1.482383,-1.67224 1.528863,-1.70097 0.0465,-0.0288 0.50412,0.30769 1.016985,0.74758 0.51286,0.43989 1.72219,1.45868 2.6874,2.26397 l 1.75493,1.46418 -0.48746,0.53803 c -0.49262,0.54373 -3.27994,3.67539 -6.168253,6.93025 -0.86511,0.9749 -2.624523,2.96729 -3.909807,4.42753 -2.555664,2.90356 -2.529399,2.88393 -3.261571,2.43757 z m 29.888904,-11.52709 c 1.08563,-3.04691 2.29176,-6.60629 2.23862,-6.60629 -0.0257,0 -0.30578,0.36966 -0.62238,0.82148 l -0.57562,0.82148 -0.71129,0.12547 c -2.10213,0.37085 -5.09356,0.44054 -7.07097,0.16475 -4.50701,-0.62863 -8.59992,-2.64057 -11.92403,-5.86147 -3.713376,-3.59808 -5.891944,-8.17727 -6.319279,-13.28266 -0.288447,-3.44608 0.475108,-7.4147 2.004532,-10.41869 1.650472,-3.24175 4.038667,-5.85456 7.498357,-8.20364 0.35247,-0.23932 1.96578,-1.78937 3.66838,-3.52452 1.67157,-1.703523 3.05436,-3.082171 3.07287,-3.06366 0.0185,0.01851 -0.39456,1.013216 -0.91792,2.21045 -0.52337,1.19724 -0.93153,2.19685 -0.90703,2.22135 0.0245,0.0245 0.36758,-0.0513 0.76241,-0.16843 0.39482,-0.11714 1.10501,-0.29745 1.57818,-0.40069 l 0.86032,-0.1877 1.13472,-1.10103 c 0.62409,-0.60556 1.40331,-1.357425 1.73159,-1.670807 l 0.59688,-0.569785 -0.78915,1.539752 -0.78914,1.53976 1.76253,-5.2e-4 1.76253,-5.1e-4 2.05389,-1.755903 c 1.12963,-0.965747 2.14049,-1.826685 2.24635,-1.913196 0.10586,-0.08651 -0.29932,0.472884 -0.9004,1.243099 -0.60109,0.77021 -1.33757,1.7178 -1.63664,2.10574 -0.58313,0.75641 -4.74316,4.87393 -4.83324,4.78385 -0.0297,-0.0297 0.069,-0.24 0.21936,-0.46725 0.15039,-0.22726 0.44354,-0.6883 0.65144,-1.02454 l 0.37801,-0.61135 -0.60988,0.66075 -0.60988,0.66074 -1.15203,0.15944 c -1.29186,0.17879 -3.86572,0.80863 -4.19232,1.02588 -0.11733,0.0781 -0.62852,0.50707 -1.13598,0.95337 -0.50746,0.4463 -0.94076,0.79335 -0.96288,0.77122 -0.0221,-0.0221 0.19129,-0.93335 0.47427,-2.02493 0.28298,-1.09158 0.49609,-2.00312 0.47358,-2.02563 -0.0577,-0.0577 -0.63518,0.86257 -1.57082,2.50306 -0.44618,0.78231 -0.979,1.56848 -1.20146,1.77273 -0.21986,0.20186 -0.90334,0.814 -1.51885,1.36033 -4.82664,4.28405 -6.703905,10.5022 -5.03446,16.67589 1.60327,5.92903 6.53129,10.62597 12.81015,12.20945 1.61962,0.40846 2.69586,0.5093 4.78629,0.44845 1.98345,-0.0577 2.97311,-0.21639 4.56865,-0.73238 0.78642,-0.25433 0.78652,-0.25441 1.67172,-1.34493 0.48689,-0.59982 1.69137,-2.05794 2.67663,-3.24025 0.98526,-1.18232 1.89635,-2.2858 2.02465,-2.45219 0.12831,-0.16638 0.23329,-0.25467 0.23329,-0.1962 0,0.0585 -0.35391,1.08042 -0.78646,2.27102 -0.43256,1.19059 -0.78646,2.20193 -0.78646,2.24744 0,0.11188 1.37015,-1.13608 2.14906,-1.9574 1.8749,-1.97701 3.29946,-4.70806 4.00204,-7.67245 0.33146,-1.39847 0.44771,-4.15173 0.24712,-5.85251 -0.15405,-1.3062 -0.58811,-3.1576 -1.03707,-4.42349 l -0.31595,-0.89086 0.23002,-0.24914 c 0.12651,-0.13703 1.58958,-1.52219 3.25128,-3.07814 l 3.02126,-2.82901 -0.64021,1.19017 c -0.35213,0.6546 -0.9748,1.8508 -1.38371,2.65824 l -0.74349,1.46806 0.37535,1.15349 c 0.52319,1.60784 0.68587,2.29389 0.91792,3.87105 0.25502,1.73334 0.27287,4.53881 0.039,6.12979 -0.96517,6.56578 -4.93854,12.1548 -10.78515,15.17063 l -1.00743,0.51967 -1.87432,2.88369 c -1.65519,2.54656 -3.07227,4.73864 -3.43504,5.31366 -0.0665,0.10537 0.20698,-0.72857 0.6077,-1.85322 z m -18.39917,-6.33527 c -1.60441,-1.29268 -2.911325,-2.38976 -2.904235,-2.43794 0.007,-0.0482 0.20353,-0.31369 0.436525,-0.59001 l 0.42363,-0.5024 0.54065,0.45999 c 0.29736,0.253 1.60238,1.31819 2.90005,2.36709 1.29766,1.04891 2.37294,1.94625 2.38952,1.99409 0.0166,0.0478 -0.17218,0.30582 -0.41945,0.57326 l -0.44958,0.48626 z m 6.69884,-5.52772 c 0.45567,-0.75163 6.33578,-9.47127 8.6123,-12.77122 0.61355,-0.88937 1.03264,-1.58523 0.9313,-1.54635 -0.2504,0.0961 -1.90014,0.47671 -5.09368,1.17519 -1.47068,0.32166 -3.09315,0.69847 -3.60548,0.83734 -0.51233,0.13888 -0.91199,0.233 -0.88814,0.20914 0.06,-0.06 3.35185,-2.3234 4.98471,-3.4274 4.62461,-3.12674 12.7944,-8.74971 14.97602,-10.30746 0.57674,-0.41181 1.11543,-0.78936 1.19708,-0.839 0.0816,-0.0496 -0.0748,0.22268 -0.34777,0.60515 -0.67075,0.93996 -7.32627,10.83709 -11.75471,17.47989 l -3.60041,5.40073 -1.64327,0.99584 c -0.90381,0.54772 -1.9105,1.16274 -2.23709,1.36672 -1.10608,0.69082 -1.61829,0.96566 -1.53086,0.82143 z m 11.79335,-5.63808 c 1.11219,-2.75059 2.10657,-5.38132 2.05396,-5.43393 -0.0396,-0.0396 -1.42433,0.81243 -2.94385,1.81126 -0.29716,0.19534 -0.29088,0.17548 0.15128,-0.47779 1.82775,-2.70047 9.91275,-13.70663 13.05662,-17.77407 1.84744,-2.39015 4.65055,-5.93934 4.8449,-6.13442 0.0862,-0.0865 -0.0323,0.22237 -0.2634,0.6864 -0.23106,0.46402 -1.03214,2.13919 -1.78018,3.72259 -0.74804,1.5834 -3.12433,6.41799 -5.28064,10.74354 -2.15631,4.32554 -4.31632,8.67635 -4.80004,9.66845 -0.4837,0.9921 -0.94186,1.82777 -1.01813,1.85703 -0.0763,0.0292 -1.17048,0.73244 -2.43159,1.56261 l -2.29293,1.5094 z m 6.25418,-21.19293 c 0.12028,-0.20186 0.53385,-0.94395 0.91902,-1.6491 0.38519,-0.70514 0.74442,-1.30932 0.79832,-1.34263 0.0539,-0.0333 0.28852,0.0926 0.5214,0.27972 l 0.42343,0.34027 -0.60605,0.6173 c -0.33334,0.33951 -0.98153,0.95573 -1.44044,1.36938 -0.70071,0.63159 -0.79934,0.69328 -0.61568,0.38506 z M 125.2616,107.475 c -1.83069,-1.07306 -4.13439,-1.81247 -6.58843,-2.11465 -0.45157,-0.0556 -0.84216,-0.12221 -0.86797,-0.14803 -0.0258,-0.0258 0.73794,-0.76564 1.69722,-1.64407 2.02112,-1.85077 1.64284,-1.74607 3.7668,-1.0425 1.80026,0.59635 4.15261,1.7534 5.2767,2.59546 l 0.3482,0.26083 -0.65506,0.58487 c -0.97589,0.87133 -2.22011,1.89694 -2.28833,1.88626 -0.033,-0.005 -0.34309,-0.17533 -0.68913,-0.37817 z"
       id="path2" /><circle
       style="fill:none;stroke:#87dd00;stroke-width:5.765;stroke-dasharray:none;stroke-opacity:1"
       id="path3"
       cx="112.84433"
       cy="128.51715"
       r="47.802109" /></g><path
     style="fill:#ffffff;stroke:none;stroke-width:0.398277"
     d="m 30.11924,29.81667 v 0.05767 c 2.713528,-0.05306 5.517463,-0.726927 8.229989,-0.92284 4.586849,-0.331282 9.18085,-0.403745 13.820167,-0.403745 4.755091,0 9.705156,0.288393 14.36366,0.961297 4.535465,0.65513 9.609665,1.333009 13.431965,3.383748 4.65347,2.496678 3.58729,5.548486 -1.16462,7.411573 -1.34082,0.525693 -2.87298,0.954936 -4.34792,1.259295 C 61.550067,44.226104 46.111469,44.613074 32.991972,42.582635 27.13548,41.676257 16.183104,40.665478 17.851898,34.776936 h -0.07764 l -0.155283,0.288388 -0.232925,-0.346067 c -1.575033,0.858044 -0.973872,3.536607 -0.07764,4.55653 2.637946,3.002027 8.259501,3.533583 10.843917,6.748278 0.956723,1.190047 1.105725,2.973415 2.588046,3.845175 7.626764,4.485354 21.053646,3.292997 29.969579,2.557041 3.205244,-0.264575 7.211575,-0.929522 9.782818,-2.441684 1.286987,-0.756889 2.569611,-3.267017 3.183301,-4.421952 0.95015,0.445796 1.94766,0.745403 2.79509,1.336199 2.293,1.598584 0.89281,3.262815 -1.47519,4.191238 -3.879321,1.520964 -8.688318,2.418624 -13.043754,2.778136 -10.667061,0.880499 -23.049531,1.502511 -33.308162,-1.461162 -1.468136,-0.424137 -2.976346,-0.897537 -4.192636,-1.66304 -0.446115,-0.280778 -0.97076,-1.192413 -1.397545,-1.31697 0,2.992034 6.457365,4.311469 9.316969,5.37363 2.177667,0.80886 2.709276,2.445224 4.891408,3.21072 6.383518,2.239336 15.969539,1.777386 22.671289,0.74019 3.457293,-0.535065 4.226497,-1.576591 6.521878,-3.210717 0.413598,-0.29445 2.223205,-1.177421 2.79509,-0.970903 2.190356,0.79097 1.585867,2.492607 -0.07764,3.316455 -2.490695,1.233515 -6.152046,1.738259 -9.084044,1.980268 C 52.312029,60.508584 44.26453,60.715027 36.563478,59.443715 34.4629,59.096952 32.637929,58.17643 30.662732,57.790297 l 0.155282,0.173031 c -1.675304,-8e-6 -1.53073,-1.736208 -1.319903,-2.480137 h -0.07764 c -2.182529,3.242666 5.06033,4.891245 7.608858,6.363762 1.324226,0.765122 2.124206,2.490493 3.416221,2.970396 4.051926,1.505029 10.08156,1.131975 14.441301,0.817097 1.644927,-0.118802 3.640844,-0.214468 5.124331,-0.826715 1.134129,-0.468059 1.432458,-1.663638 2.406886,-2.345552 2.21886,-1.552773 10.396613,-3.430167 8.980525,-6.45989 -0.368709,-0.788847 -1.404129,-1.018645 -1.992798,-1.614973 2.697795,-0.158219 7.654516,-2.319763 8.915816,-4.095106 1.4225,-2.002245 -1.76186,-4.569549 -4.49026,-4.729565 0.23977,-0.846079 1.91702,-1.712693 2.79509,-2.210974 3.06582,-1.739768 8.68908,-3.163531 8.22999,-6.671374 -0.51247,-3.915643 -8.14396,-5.554548 -12.34499,-6.421437 -9.934903,-2.05009 -21.268548,-2.336332 -31.5224,-1.595748 -3.627315,0.261983 -7.245912,0.941021 -10.869797,1.153553 m 17.15875,-0.672908 c -6.63312,0.958126 -13.186521,0.533679 -19.487992,2.874268 -1.155782,0.429298 -6.45984,3.409138 -3.338581,4.51808 0.402258,0.142913 1.748565,-0.463495 2.17396,-0.586391 1.992328,-0.575578 4.130642,-0.889217 6.211312,-1.211232 6.787564,-1.050475 14.473813,-1.559759 21.429026,-1.057421 5.316706,0.383999 10.536613,0.635061 15.761204,1.605359 1.036384,0.192475 4.975048,1.712642 5.745458,1.480394 1.06052,-0.319704 0.90511,-1.695464 0.55644,-2.278266 -0.89573,-1.497183 -3.55011,-2.392612 -5.447841,-2.980011 C 65.726944,29.913231 60.182007,29.633545 54.731567,29.239889 52.46865,29.076448 49.53329,28.81799 47.277994,29.143759 m -17.546957,0.730583 v 0.05768 h 0.310565 l -0.310565,-0.05768 m -0.310566,0.05768 v 0.05768 h 0.232924 l -0.232924,-0.05768 m -0.698772,0.115357 v 0.05768 l 0.621131,-0.05768 h -0.621131 m -0.310566,0.05768 v 0.05768 h 0.232924 l -0.232924,-0.05768 m -0.310566,0.05768 v 0.05768 h 0.232925 l -0.232925,-0.05768 m -0.310565,0.05768 v 0.05768 h 0.232924 l -0.232924,-0.05768 m -0.181163,0.0769 0.05176,0.01924 -0.05176,-0.01924 m -0.310566,0.05768 0.05176,0.01924 -0.05176,-0.01924 m -0.232924,0.05768 0.05176,0.01924 -0.05176,-0.01924 m -0.284686,0.03843 0.07764,0.05768 -0.07764,-0.05768 m -0.310565,0.05768 0.07764,0.05768 -0.07764,-0.05768 m -0.155283,0.05768 0.07764,0.05768 -0.07764,-0.05768 m -0.310566,0.05768 0.07764,0.05768 -0.07764,-0.05768 m -0.465848,0.115352 0.07764,0.05768 -0.07764,-0.05768 m -0.155283,0.05768 0.07764,0.05768 -0.07764,-0.05768 m -0.465848,0.115357 0.07764,0.05768 -0.07764,-0.05768 m -0.181163,0.0769 0.05176,0.01924 -0.05176,-0.01924 m -0.232924,0.05767 0.05176,0.01924 -0.05176,-0.01924 m -0.207045,0.03843 0.07764,0.05768 -0.07764,-0.05768 m -0.181162,0.0769 0.05176,0.01924 -0.05176,-0.01924 m -0.232925,0.05768 0.05176,0.01924 -0.05176,-0.01924 m -0.207044,0.03843 0.07764,0.05768 -0.07764,-0.05768 m -0.155282,0.05768 0.07764,0.05768 -0.07764,-0.05768 m -0.155283,0.05768 0.07764,0.05768 -0.07764,-0.05768 m -2.639808,1.153553 h -0.310566 l -0.543489,0.288384 v 0.05768 h 0.310565 c 1e-6,-0.378637 2.576343,-1.239393 3.105656,-1.384262 -0.357528,-0.156945 -2.614957,0.763679 -2.562166,1.0382 m -3.105656,1.903356 0.543489,-0.230709 -0.07764,-0.173032 0.54349,-0.346066 -0.388207,0.576776 1.63047,-1.268906 c -0.897108,0.157837 -1.797212,0.858892 -2.251601,1.441937 m 1.164621,-0.807486 -0.07764,0.05768 0.07764,-0.05768 m -0.621132,0.692134 -0.310565,0.403741 h 0.07764 l 0.232923,-0.403741 m 9.239328,3.691364 v 0.05768 c 3.526068,1.65437 8.833302,2.071896 12.888473,2.36478 11.350372,0.819781 21.88652,0.302499 32.764664,-2.249427 -0.19103,-0.477331 -1.743857,-0.790819 -2.329236,-0.990132 C 68.06654,36.284325 65.112585,35.919113 62.262783,35.50747 54.482392,34.383625 45.500757,34.442422 37.7281,35.56515 34.247189,36.067954 30.441792,36.580521 27.401794,38.006833 M 16.764918,37.43005 c 1.374266,2.771011 6.844905,4.404925 10.48159,4.902596 v 0.05768 c -2.652148,-0.05185 -6.985233,-1.401663 -8.85112,-2.768525 -0.451992,-0.331107 -2.142135,-1.66911 -1.63047,-2.191749 m 67.004533,0.634455 -0.0776,0.05768 0.0776,-0.05768 m -0.0776,0.115353 c -1.58026,3.186393 -8.68961,4.204695 -12.577911,4.806464 -12.917787,1.999221 -25.402229,1.144161 -38.354853,0.38452 v -0.05768 c 3.734022,0 7.896343,0.53665 11.646211,0.807486 3.777862,0.272856 7.976739,0.03992 11.72385,-0.230709 7.738333,-0.558898 15.851885,-0.768794 23.059503,-3.297238 1.77011,-0.620957 2.92473,-1.675769 4.5032,-2.412844 m -51.010405,5.075686 v 0.05768 h -0.232924 l 0.232924,-0.05768 m 45.575505,6.517573 c -1.43578,2.133187 -5.78478,2.895198 -8.618196,3.47988 -9.16272,1.890744 -18.121979,1.422713 -27.485057,1.422713 v -0.05768 c 12.936565,0 24.645116,0.08308 36.103253,-4.844914 m -37.190233,4.729561 v 0.05768 h -0.388247 l 0.388207,-0.05768 m 0.931697,0.05768 v 0.05767 h -0.54349 l 0.54349,-0.05767 m -11.956777,0.346062 -0.155283,0.173036 0.155283,-0.173036 m -0.232924,0.23071 -0.07764,0.115357 0.07764,-0.115357 m 41.227586,1.788008 c -0.410006,1.446776 -3.493799,2.047541 -5.124333,2.384009 -5.174273,1.067729 -10.480118,1.307356 -15.838849,1.307356 v -0.05768 c 7.224746,0 15.013026,-0.496791 20.963182,-3.633687 m -40.140606,1.038197 -0.155283,0.115353 0.155283,-0.115353 m 36.258534,6.056146 c 1.509012,1.93627 -3.813428,2.557785 -5.667821,2.710847 -7.200305,0.594316 -14.366899,0.636617 -21.58431,0.115357 -1.880094,-0.135789 -8.270693,-0.684104 -6.677161,-2.826204 -3.274171,0.704073 1.082461,2.930636 2.251601,3.268394 1.774142,0.512537 3.803966,0.525345 5.51254,1.124712 1.295079,0.454315 1.787226,1.533784 2.950373,1.941819 3.302783,1.158611 8.988903,0.801118 12.422623,0.163413 1.613068,-0.299576 1.862764,-1.441691 3.26094,-1.989879 2.24523,-0.880287 4.96889,-0.797784 7.143007,-1.874516 1.103976,-0.546742 2.480325,-2.184054 0.388208,-2.633943 m -3.882071,5.652402 c -0.740245,1.393132 -4.686609,1.493637 -6.366596,1.614972 -6.014732,0.434413 -14.127794,0.978738 -19.487989,-1.326584 -1.255543,1.541005 4.362517,2.189555 5.434898,2.499362 1.439946,0.415992 2.47862,1.254142 3.804429,1.691876 4.392679,1.450309 8.102488,-0.68093 11.801492,-1.749554 1.263104,-0.364901 6.346773,-1.109576 4.96905,-2.730072 h -0.155284 m -22.050156,4.32582 c -0.861387,1.057225 2.749206,1.82296 3.649146,2.268652 2.59395,1.284646 4.955653,2.531929 8.385271,1.576523 1.077071,-0.30005 1.917639,-1.302031 2.95037,-1.749558 1.068239,-0.46291 4.131506,-0.915412 3.649149,-2.153296 -5.580827,1.200124 -13.075239,2.122377 -18.633936,0.05768 m 15.372996,4.037431 c -1.527798,0.0896 -3.380116,0.339244 -4.891409,0.557552 -2.196453,0.317267 -5.695012,-0.964666 -7.531214,-0.480649 -1.307088,0.344546 2.119074,1.741597 2.406884,1.884136 2.690811,1.332619 5.064477,0.806921 7.686497,-0.221099 0.943075,-0.369752 2.727992,-0.716619 2.329242,-1.73994"
     id="path1" /></svg>
