<?xml version="1.0" encoding="UTF-8" standalone="no"?>
<!-- Created with Inkscape (http://www.inkscape.org/) -->

<svg
   width="101.36922mm"
   height="101.36922mm"
   viewBox="0 0 101.36922 101.36922"
   version="1.1"
   id="svg1"
   xml:space="preserve"
   xmlns="http://www.w3.org/2000/svg"
   xmlns:svg="http://www.w3.org/2000/svg"><defs
     id="defs1" /><g
     id="layer1"
     transform="translate(-62.159715,-77.832539)"><path
       style="fill:#f9f9f9;stroke-width:0.396328"
       d="m 91.035876,158.81768 c -0.618711,-0.3772 -3.952267,-3.32489 -4.08191,-3.60943 -0.147674,-0.32411 -0.158784,-0.68293 -0.03146,-1.01617 0.05101,-0.13353 0.959379,-1.21343 2.01859,-2.39979 2.631236,-2.9471 7.182451,-8.0837 8.933696,-10.08275 0.794392,-0.90681 1.482383,-1.67224 1.528863,-1.70097 0.0465,-0.0288 0.50412,0.30769 1.016985,0.74758 0.51286,0.43989 1.72219,1.45868 2.6874,2.26397 l 1.75493,1.46418 -0.48746,0.53803 c -0.49262,0.54373 -3.27994,3.67539 -6.168253,6.93025 -0.86511,0.9749 -2.624523,2.96729 -3.909807,4.42753 -2.555664,2.90356 -2.529399,2.88393 -3.261571,2.43757 z m 29.888904,-11.52709 c 1.08563,-3.04691 2.29176,-6.60629 2.23862,-6.60629 -0.0257,0 -0.30578,0.36966 -0.62238,0.82148 l -0.57562,0.82148 -0.71129,0.12547 c -2.10213,0.37085 -5.09356,0.44054 -7.07097,0.16475 -4.50701,-0.62863 -8.59992,-2.64057 -11.92403,-5.86147 -3.713376,-3.59808 -5.891944,-8.17727 -6.319279,-13.28266 -0.288447,-3.44608 0.475108,-7.4147 2.004532,-10.41869 1.650472,-3.24175 4.038667,-5.85456 7.498357,-8.20364 0.35247,-0.23932 1.96578,-1.78937 3.66838,-3.52452 1.67157,-1.703523 3.05436,-3.082171 3.07287,-3.06366 0.0185,0.01851 -0.39456,1.013216 -0.91792,2.21045 -0.52337,1.19724 -0.93153,2.19685 -0.90703,2.22135 0.0245,0.0245 0.36758,-0.0513 0.76241,-0.16843 0.39482,-0.11714 1.10501,-0.29745 1.57818,-0.40069 l 0.86032,-0.1877 1.13472,-1.10103 c 0.62409,-0.60556 1.40331,-1.357425 1.73159,-1.670807 l 0.59688,-0.569785 -0.78915,1.539752 -0.78914,1.53976 1.76253,-5.2e-4 1.76253,-5.1e-4 2.05389,-1.755903 c 1.12963,-0.965747 2.14049,-1.826685 2.24635,-1.913196 0.10586,-0.08651 -0.29932,0.472884 -0.9004,1.243099 -0.60109,0.77021 -1.33757,1.7178 -1.63664,2.10574 -0.58313,0.75641 -4.74316,4.87393 -4.83324,4.78385 -0.0297,-0.0297 0.069,-0.24 0.21936,-0.46725 0.15039,-0.22726 0.44354,-0.6883 0.65144,-1.02454 l 0.37801,-0.61135 -0.60988,0.66075 -0.60988,0.66074 -1.15203,0.15944 c -1.29186,0.17879 -3.86572,0.80863 -4.19232,1.02588 -0.11733,0.0781 -0.62852,0.50707 -1.13598,0.95337 -0.50746,0.4463 -0.94076,0.79335 -0.96288,0.77122 -0.0221,-0.0221 0.19129,-0.93335 0.47427,-2.02493 0.28298,-1.09158 0.49609,-2.00312 0.47358,-2.02563 -0.0577,-0.0577 -0.63518,0.86257 -1.57082,2.50306 -0.44618,0.78231 -0.979,1.56848 -1.20146,1.77273 -0.21986,0.20186 -0.90334,0.814 -1.51885,1.36033 -4.82664,4.28405 -6.703905,10.5022 -5.03446,16.67589 1.60327,5.92903 6.53129,10.62597 12.81015,12.20945 1.61962,0.40846 2.69586,0.5093 4.78629,0.44845 1.98345,-0.0577 2.97311,-0.21639 4.56865,-0.73238 0.78642,-0.25433 0.78652,-0.25441 1.67172,-1.34493 0.48689,-0.59982 1.69137,-2.05794 2.67663,-3.24025 0.98526,-1.18232 1.89635,-2.2858 2.02465,-2.45219 0.12831,-0.16638 0.23329,-0.25467 0.23329,-0.1962 0,0.0585 -0.35391,1.08042 -0.78646,2.27102 -0.43256,1.19059 -0.78646,2.20193 -0.78646,2.24744 0,0.11188 1.37015,-1.13608 2.14906,-1.9574 1.8749,-1.97701 3.29946,-4.70806 4.00204,-7.67245 0.33146,-1.39847 0.44771,-4.15173 0.24712,-5.85251 -0.15405,-1.3062 -0.58811,-3.1576 -1.03707,-4.42349 l -0.31595,-0.89086 0.23002,-0.24914 c 0.12651,-0.13703 1.58958,-1.52219 3.25128,-3.07814 l 3.02126,-2.82901 -0.64021,1.19017 c -0.35213,0.6546 -0.9748,1.8508 -1.38371,2.65824 l -0.74349,1.46806 0.37535,1.15349 c 0.52319,1.60784 0.68587,2.29389 0.91792,3.87105 0.25502,1.73334 0.27287,4.53881 0.039,6.12979 -0.96517,6.56578 -4.93854,12.1548 -10.78515,15.17063 l -1.00743,0.51967 -1.87432,2.88369 c -1.65519,2.54656 -3.07227,4.73864 -3.43504,5.31366 -0.0665,0.10537 0.20698,-0.72857 0.6077,-1.85322 z m -18.39917,-6.33527 c -1.60441,-1.29268 -2.911325,-2.38976 -2.904235,-2.43794 0.007,-0.0482 0.20353,-0.31369 0.436525,-0.59001 l 0.42363,-0.5024 0.54065,0.45999 c 0.29736,0.253 1.60238,1.31819 2.90005,2.36709 1.29766,1.04891 2.37294,1.94625 2.38952,1.99409 0.0166,0.0478 -0.17218,0.30582 -0.41945,0.57326 l -0.44958,0.48626 z m 6.69884,-5.52772 c 0.45567,-0.75163 6.33578,-9.47127 8.6123,-12.77122 0.61355,-0.88937 1.03264,-1.58523 0.9313,-1.54635 -0.2504,0.0961 -1.90014,0.47671 -5.09368,1.17519 -1.47068,0.32166 -3.09315,0.69847 -3.60548,0.83734 -0.51233,0.13888 -0.91199,0.233 -0.88814,0.20914 0.06,-0.06 3.35185,-2.3234 4.98471,-3.4274 4.62461,-3.12674 12.7944,-8.74971 14.97602,-10.30746 0.57674,-0.41181 1.11543,-0.78936 1.19708,-0.839 0.0816,-0.0496 -0.0748,0.22268 -0.34777,0.60515 -0.67075,0.93996 -7.32627,10.83709 -11.75471,17.47989 l -3.60041,5.40073 -1.64327,0.99584 c -0.90381,0.54772 -1.9105,1.16274 -2.23709,1.36672 -1.10608,0.69082 -1.61829,0.96566 -1.53086,0.82143 z m 11.79335,-5.63808 c 1.11219,-2.75059 2.10657,-5.38132 2.05396,-5.43393 -0.0396,-0.0396 -1.42433,0.81243 -2.94385,1.81126 -0.29716,0.19534 -0.29088,0.17548 0.15128,-0.47779 1.82775,-2.70047 9.91275,-13.70663 13.05662,-17.77407 1.84744,-2.39015 4.65055,-5.93934 4.8449,-6.13442 0.0862,-0.0865 -0.0323,0.22237 -0.2634,0.6864 -0.23106,0.46402 -1.03214,2.13919 -1.78018,3.72259 -0.74804,1.5834 -3.12433,6.41799 -5.28064,10.74354 -2.15631,4.32554 -4.31632,8.67635 -4.80004,9.66845 -0.4837,0.9921 -0.94186,1.82777 -1.01813,1.85703 -0.0763,0.0292 -1.17048,0.73244 -2.43159,1.56261 l -2.29293,1.5094 z m 6.25418,-21.19293 c 0.12028,-0.20186 0.53385,-0.94395 0.91902,-1.6491 0.38519,-0.70514 0.74442,-1.30932 0.79832,-1.34263 0.0539,-0.0333 0.28852,0.0926 0.5214,0.27972 l 0.42343,0.34027 -0.60605,0.6173 c -0.33334,0.33951 -0.98153,0.95573 -1.44044,1.36938 -0.70071,0.63159 -0.79934,0.69328 -0.61568,0.38506 z M 125.2616,107.475 c -1.83069,-1.07306 -4.13439,-1.81247 -6.58843,-2.11465 -0.45157,-0.0556 -0.84216,-0.12221 -0.86797,-0.14803 -0.0258,-0.0258 0.73794,-0.76564 1.69722,-1.64407 2.02112,-1.85077 1.64284,-1.74607 3.7668,-1.0425 1.80026,0.59635 4.15261,1.7534 5.2767,2.59546 l 0.3482,0.26083 -0.65506,0.58487 c -0.97589,0.87133 -2.22011,1.89694 -2.28833,1.88626 -0.033,-0.005 -0.34309,-0.17533 -0.68913,-0.37817 z"
       id="path2" /><circle
       style="fill:none;stroke:#87dd00;stroke-width:5.765;stroke-dasharray:none;stroke-opacity:1"
       id="path3"
       cx="112.84433"
       cy="128.51715"
       r="47.802109" /></g></svg>
